<?xml version="1.0" encoding="utf-8"?>
<!-- Generator: Adobe Illustrator 28.4.1, SVG Export Plug-In . SVG Version: 6.00 Build 0)  -->
<svg version="1.1" id="Layer_1" xmlns="http://www.w3.org/2000/svg" xmlns:xlink="http://www.w3.org/1999/xlink" x="0px" y="0px"
	 viewBox="0 0 128 128" style="enable-background:new 0 0 128 128;" xml:space="preserve">
<style type="text/css">
	.st0{fill-rule:evenodd;clip-rule:evenodd;fill:#3998E5;}
	.st1{fill-rule:evenodd;clip-rule:evenodd;fill:#FFFFFF;}
</style>
<g>
	<path class="st0" d="M105.5,66l-0.4,1c-6.6,12.9-18.4,20.8-35.2,21.2c-7.8,0.2-15.3-1.8-20.2-4c-10.5-4.7-19.4-13.5-24.2-22.9
		c-6.9-13.4-8.2-32.1,6.2-46.1c0.2,0-1.7,3-1.5,3l-0.4,1.3C19.4,52,51.4,79.9,82.6,76.7C90.1,75.9,99.6,71.9,105.5,66"/>
	<path class="st0" d="M86.6,52.5c7.8,0.1,16-3.6,20.9-8.7c-4.2,10.8-16.5,17.7-33,15.5c-13.8-1.8-26.9-15.7-28.3-29.6
		c-1-10.1,2.5-16.1,8.3-23.5c-2,3.8-2.8,6.8-3,8.7C49.4,36.7,69.1,52.4,86.6,52.5"/>
	<path class="st0" d="M106.7,25.3c-1.2,2.8-8.2,8.1-11.3,8.7c-12.3,2.6-20.1-3.2-24.2-9.8c-0.6-1-1.7-3.7-1.9-4.4
		C67.6,14.4,68.3,6.2,73.1,2c-1.4,4-1.6,8.7-0.9,11.8c0.5,1.8,1.8,5.1,3.2,7.1c2.5,3.7,4.1,4.6,7.4,6.5c1.5,0.9,3,1.6,3.7,1.8
		C89.7,30.1,96.2,32.5,106.7,25.3"/>
</g>
<g>
	<path class="st1" d="M109.1,94.6l5.3,0c0,0-9.8,13.3-10.6,14.4c-0.3,0.3-0.7,0.7-0.9,1.2c-0.5,1.2-1,3.8-1,3.8l-4.8,0
		c0,0,0.8-2.7,0.7-4.1c0-1.3-0.7-2.5-1-3.8c-0.4-1.3-0.9-3.8-0.9-3.8h5l0.7,2.7L109.1,94.6z"/>
	<path class="st1" d="M99.1,97.4c1,0.6,1.6,3.8,1.6,3.8s-5.1,0.1-7.9,0.1h-2.4l-2.9,12.7h-4.5c0,0,2.8-13.8,3.4-16.2
		c0.2-0.8,1.5-0.7,3.5-0.7h3.3C95.5,97,98,96.7,99.1,97.4 M78.4,103.5c0,0,0.1-0.8-0.5-1.8c-0.5-0.8-1-1-2.4-1
		c-3.9-0.1-3.8,2.7-3.8,2.7L78.4,103.5z M82.6,100.3c0.6,2-0.5,6.8-0.5,6.8s-5.6-0.1-8.7,0c-1,0-2.1-0.1-2.4,0.3
		c-0.4,0.6,0.1,1.6,0.6,2c0.5,0.5,1.6,0.5,2,0.6c2.5,0.3,7.7,0.1,7.7,0.1l-0.9,4c0,0-7.4,0.4-11.1-0.5c-0.7-0.2-1.4-0.5-1.9-1
		c-0.1-0.1-0.2-0.3-0.4-0.5c-0.1-0.1-0.4-0.6-0.5-0.9c-0.8-2.3,0.1-6.6,1-8.9c0.1-0.3,0.2-0.6,0.4-0.9c0.2-0.4,0.3-0.8,0.5-1
		c0.1-0.1,0.2-0.2,0.3-0.4c0.1-0.2,0.2-0.3,0.4-0.5c0.3-0.4,0.7-0.7,1.2-1c1.5-1.2,4.3-2.1,7.7-1.7c1.3,0.1,3.2,0.6,4.1,1.9
		C82.3,99.1,82.5,99.8,82.6,100.3L82.6,100.3z M62.2,97l4.3,0c0,0-2.4,11.4-3.6,17h-5c-3.5,0-6.6,0.4-7.9-2.1
		c-1.3-2.4-0.1-6.4,0.5-9.1c0.4-1.9,1.3-5.8,1.3-5.8l4.5,0c0,0-1.3,6.1-1.8,9.1c-0.2,1.1-0.6,2.1-0.2,2.9c0.4,0.8,0.9,0.8,2.6,0.9
		c0.5,0,2.2,0,2.2,0L62.2,97z M42,105.2c0.5-1.6,1.1-3.3,1-4.8c-0.1-1.5-1.4-3-2.2-3.3c-2.5-0.9-4.9,0.4-5.8,1.4
		c-1.2,1.3-1.6,2.9-2.1,5c-0.3,1.6-0.6,3.2,0,4.4c1,2.2,4.2,1.7,7.7,1.7C41.2,108.3,41.6,106.7,42,105.2L42,105.2z M48,98.9
		c0.5,3.6-1.4,7.5-2.7,11c1.3,0.1,2.5,0,2.6,0.1c0.1,0.1-0.9,4.1-1.2,4.1c-1.1,0-4.5,0.1-6,0.1c-4.7,0-9.2,0.3-11.5-2.1
		c-0.9-1-1.6-2.6-1.7-3.8c-0.3-1.9,0.1-4.1,0.5-5.8c0.4-1.6,0.9-3.1,1.7-4.4c2-3.5,5.5-6.1,11.3-5.5c1.1,0.1,2.8,0.6,3.8,1.2
		c0.1,0,0.3,0.2,0.4,0.3C46.5,94.9,47.7,97,48,98.9L48,98.9z M27,97c-0.3,1.3-0.6,2.8-0.9,4.1h-4.8c0.4-1.4,0.7-2.9,1-4.1
		C23.9,97,25.3,97,27,97 M21.1,102.3h4.6c-0.6,3.3-1.8,8.7-2.7,12.5c-0.6,2.3-1,4.1-2.6,5.3c-0.1,0.1-0.2,0.1-0.3,0.2
		c-0.3,0.3-1.6,0.6-2.4,0.7c-1.2,0.1-2.6,0-4.1,0c0.4-1.4,0.8-3.1,1.2-4.4c3.6,0.4,3.7-3,4.4-6.3C19.7,108.2,20.9,103.1,21.1,102.3"
		/>
</g>
</svg>
